# xmcd
#
# Track frame offsets: 
#        150
#        22067
#        39946
#        63163
#        86953
#        107844
#        131816
#        161605
#        181815
#        205901
#
# Disc length: 3109 seconds
#
# Revision: 0
# Processed by: cddbd v1.5.2PL0 Copyright (c) Steve Scherf et al.
# Submitted via: ExactAudioCopy v1.0b3
#
DISCID=860c230a
DTITLE=Thanh Tuyen - Tinh Chang Y Thiep
DYEAR=1993
DGENRE=
TTITLE0=Chiec ao ba ba
TTITLE1=Gio ve mien xuoi
TTITLE2=Vung la me bay
TTITLE3=Tam diep khuc
TTITLE4=Hinh bong que nha
TTITLE5=Tinh chang y thiep
TTITLE6=Canh thu bang huu
TTITLE7=Bay ngan dem gop lai
TTITLE8=Con thuong rau dang moc sau he
TTITLE9=May nhip cau tre
EXTD=
EXTT0=
EXTT1=
EXTT2=
EXTT3=
EXTT4=
EXTT5=
EXTT6=
EXTT7=
EXTT8=
EXTT9=
PLAYORDER=
